<svg xmlns="http://www.w3.org/2000/svg" width="57.089" height="57.089" viewBox="0 0 57.089 57.089">
                <path id="Icon_material-account-circle" data-name="Icon material-account-circle"
                    d="M31.545,3A28.545,28.545,0,1,0,60.089,31.545,28.555,28.555,0,0,0,31.545,3Zm0,8.563a8.563,8.563,0,1,1-8.563,8.563A8.552,8.552,0,0,1,31.545,11.563Zm0,40.533a20.554,20.554,0,0,1-17.127-9.191c.086-5.68,11.418-8.792,17.127-8.792,5.68,0,17.041,3.111,17.127,8.792A20.554,20.554,0,0,1,31.545,52.1Z"
                    transform="translate(-3 -3)" fill="#c1c1c1" />
            </svg>