<svg xmlns="http://www.w3.org/2000/svg" width="63.142" height="44.2" viewBox="0 0 63.142 44.2">
                <path id="Icon_awesome-user-friends" data-name="Icon awesome-user-friends"
                    d="M18.943,24.35A11.05,11.05,0,1,0,7.893,13.3,11.044,11.044,0,0,0,18.943,24.35Zm7.577,3.157H25.7a15.256,15.256,0,0,1-13.516,0h-.819A11.369,11.369,0,0,0,0,38.873v2.841A4.737,4.737,0,0,0,4.736,46.45H33.15a4.737,4.737,0,0,0,4.736-4.736V38.873A11.369,11.369,0,0,0,26.52,27.507ZM47.357,24.35a9.471,9.471,0,1,0-9.471-9.471A9.474,9.474,0,0,0,47.357,24.35Zm4.736,3.157h-.375a12.441,12.441,0,0,1-8.722,0h-.375a10.958,10.958,0,0,0-5.5,1.519,14.438,14.438,0,0,1,3.917,9.846v3.789c0,.217-.049.424-.059.631H58.407a4.737,4.737,0,0,0,4.736-4.736,11.044,11.044,0,0,0-11.05-11.05Z"
                    transform="translate(0 -2.25)" fill="#c1c1c1" />
            </svg>